<?xml version="1.0" encoding="iso-8859-1"?>
<!-- Generator: Adobe Illustrator 19.0.0, SVG Export Plug-In . SVG Version: 6.00 Build 0)  -->
<svg version="1.1" id="Layer_1" xmlns="http://www.w3.org/2000/svg" xmlns:xlink="http://www.w3.org/1999/xlink" x="0px" y="0px"
	 viewBox="0 0 512 512" style="enable-background:new 0 0 512 512;" xml:space="preserve">
<g>
	<g>
		<path d="M256,0C114.611,0,0,114.611,0,256s114.611,256,256,256s256-114.611,256-256S397.389,0,256,0z M256,486.4
			C128.751,486.4,25.6,383.241,25.6,256S128.751,25.6,256,25.6S486.4,128.759,486.4,256S383.249,486.4,256,486.4z" fill="white"/>
	</g>
</g>
<g>
	<g>
		<path d="M217.6,115.2c-7.066,0-12.8,5.734-12.8,12.8v256c0,7.066,5.734,12.8,12.8,12.8c7.066,0,12.8-5.734,12.8-12.8V128
			C230.4,120.934,224.666,115.2,217.6,115.2z" fill="white"/>
	</g>
</g>
<g>
	<g>
		<path d="M294.4,115.2c-7.066,0-12.8,5.734-12.8,12.8v256c0,7.066,5.734,12.8,12.8,12.8s12.8-5.734,12.8-12.8V128
			C307.2,120.934,301.466,115.2,294.4,115.2z" fill="white"/>
	</g>
</g>
<g>
</g>
<g>
</g>
<g>
</g>
<g>
</g>
<g>
</g>
<g>
</g>
<g>
</g>
<g>
</g>
<g>
</g>
<g>
</g>
<g>
</g>
<g>
</g>
<g>
</g>
<g>
</g>
<g>
</g>
</svg>
